<svg xmlns="http://www.w3.org/2000/svg"  viewBox="0 0 64 64" width="25px" height="25px"><linearGradient id="2MgIDMCh6ZCilQoGf~qnTa" x1="15.555" x2="15.555" y1="8" y2="28" gradientUnits="userSpaceOnUse" spreadMethod="reflect"><stop offset="0" stop-color="#6dc7ff"/><stop offset="1" stop-color="#e6abff"/></linearGradient><path fill="url(#2MgIDMCh6ZCilQoGf~qnTa)" d="M16.045 8L8.682 28 22.427 28z"/><linearGradient id="2MgIDMCh6ZCilQoGf~qnTb" x1="48.445" x2="48.445" y1="8" y2="28" gradientUnits="userSpaceOnUse" spreadMethod="reflect"><stop offset="0" stop-color="#6dc7ff"/><stop offset="1" stop-color="#e6abff"/></linearGradient><path fill="url(#2MgIDMCh6ZCilQoGf~qnTb)" d="M47.955 8L41.573 28 55.318 28z"/><linearGradient id="2MgIDMCh6ZCilQoGf~qnTc" x1="32" x2="32" y1="28" y2="58" gradientUnits="userSpaceOnUse" spreadMethod="reflect"><stop offset="0" stop-color="#6dc7ff"/><stop offset="1" stop-color="#e6abff"/></linearGradient><path fill="url(#2MgIDMCh6ZCilQoGf~qnTc)" d="M22.427 28L32 58 41.573 28z"/><linearGradient id="2MgIDMCh6ZCilQoGf~qnTd" x1="18.5" x2="18.5" y1="7" y2="59.236" gradientUnits="userSpaceOnUse" spreadMethod="reflect"><stop offset="0" stop-color="#1a6dff"/><stop offset="1" stop-color="#c822ff"/></linearGradient><path fill="url(#2MgIDMCh6ZCilQoGf~qnTd)" d="M32,59c-0.209,0-0.419-0.065-0.596-0.196l-27-20c-0.356-0.265-0.496-0.732-0.343-1.149 l11.046-30c0.147-0.399,0.504-0.632,0.96-0.654c0.428,0.01,0.802,0.289,0.932,0.696l15.954,50c0.132,0.413-0.019,0.864-0.371,1.117 C32.408,58.938,32.204,59,32,59z M6.197,37.643l23.908,17.71L15.979,11.078L6.197,37.643z"/><linearGradient id="2MgIDMCh6ZCilQoGf~qnTe" x1="45.5" x2="45.5" y1="7" y2="59.236" gradientUnits="userSpaceOnUse" spreadMethod="reflect"><stop offset="0" stop-color="#1a6dff"/><stop offset="1" stop-color="#c822ff"/></linearGradient><path fill="url(#2MgIDMCh6ZCilQoGf~qnTe)" d="M32,59c-0.204,0-0.408-0.063-0.582-0.187c-0.353-0.253-0.503-0.704-0.371-1.117l15.954-50 C47.131,7.289,47.505,7.01,47.933,7c0.391,0.024,0.813,0.255,0.96,0.654l11.046,30c0.153,0.417,0.014,0.885-0.343,1.149l-27,20 C32.419,58.935,32.209,59,32,59z M48.021,11.078L33.895,55.353l23.908-17.71L48.021,11.078z"/><linearGradient id="2MgIDMCh6ZCilQoGf~qnTf" x1="32" x2="32" y1="6.954" y2="59.189" gradientUnits="userSpaceOnUse" spreadMethod="reflect"><stop offset="0" stop-color="#1a6dff"/><stop offset="1" stop-color="#c822ff"/></linearGradient><path fill="url(#2MgIDMCh6ZCilQoGf~qnTf)" d="M32,59c-0.309,0-0.601-0.143-0.789-0.387l-23.318-30c-0.234-0.301-0.277-0.71-0.109-1.053 S8.3,27,8.682,27h46.637c0.382,0,0.73,0.218,0.898,0.561s0.125,0.752-0.109,1.053l-23.318,30C32.601,58.857,32.309,59,32,59z M10.726,29L32,56.37L53.274,29H10.726z"/></svg>